<svg width="141" height="32" viewBox="0 0 141 32" fill="none" xmlns="http://www.w3.org/2000/svg">
<path d="M92.1427 19.2227C91.8979 19.1525 91.651 19.1823 91.402 19.3185C91.153 19.4505 90.9721 19.7272 90.8635 20.1507C90.8316 20.7147 90.7295 21.2319 90.5571 21.7023C90.3847 22.1727 90.1803 22.5622 89.9462 22.8772C89.7121 23.1901 89.4694 23.4199 89.2183 23.5689C88.9671 23.7179 88.7394 23.7477 88.5372 23.6541C88.1605 23.4795 87.9072 23.0517 87.7731 22.3749C87.6411 21.6895 87.5858 20.8573 87.6092 19.8719C87.6326 18.8822 87.7241 17.7946 87.8795 16.6026C88.037 15.4107 88.2115 14.2188 88.4074 13.0312C88.6032 11.8414 88.799 10.7091 88.9948 9.63637C89.1906 8.56365 89.3439 7.65057 89.4524 6.89924C89.5141 6.50549 89.4332 6.19474 89.2055 5.95849C88.9778 5.72223 88.7117 5.57538 88.4052 5.51153C88.1009 5.4498 87.8072 5.48811 87.5262 5.63072C87.2431 5.77119 87.0707 6.03086 87.0069 6.40333C86.9132 6.95459 86.7876 7.59949 86.6301 8.3423C86.4748 9.08512 86.313 9.83432 86.1491 10.5856C85.9852 11.337 85.832 12.0415 85.6894 12.7013C85.5489 13.359 85.4318 13.8613 85.3361 14.2061C84.6316 13.7974 83.9611 13.5612 83.3268 13.4994C82.6926 13.4377 82.1009 13.493 81.5539 13.6612C80.8643 13.8804 80.2492 14.255 79.7086 14.7807C79.1701 15.3043 78.7189 15.9194 78.357 16.6239C77.9973 17.3284 77.7419 18.0883 77.5929 18.9035C77.4524 19.6676 77.4312 20.4104 77.5057 21.1319C77.495 21.1511 77.4886 21.1745 77.4801 21.1957C77.2141 21.7342 76.9395 22.1812 76.6564 22.5345C76.3755 22.8878 76.0966 23.1432 75.8221 23.2986C75.5475 23.454 75.2943 23.5178 75.0601 23.4859C74.9175 23.4689 74.8451 23.3178 74.8366 23.0283C74.8302 22.7389 74.8515 22.3579 74.9069 21.8875C74.9601 21.4171 75.0282 20.8807 75.1069 20.2763C75.1857 19.6718 75.2432 19.0546 75.2836 18.4224C75.3219 17.7882 75.3262 17.156 75.2942 16.5303C75.2623 15.9024 75.1623 15.3277 74.9899 14.802C74.8175 14.2806 74.5557 13.8336 74.2024 13.4633C73.8491 13.095 73.3829 12.8481 72.804 12.7247C72.24 12.614 71.7143 12.6268 71.229 12.7587C70.7437 12.8907 70.301 13.1036 69.9009 13.393C69.5029 13.6846 69.1304 14.0166 68.7856 14.3934C68.4408 14.768 68.1258 15.1447 67.8448 15.5193V15.0042C67.8278 14.4849 67.6916 14.0847 67.434 13.8038C67.1744 13.5207 66.8828 13.3696 66.5508 13.3462C66.223 13.3249 65.908 13.4292 65.6121 13.6612C65.3141 13.8974 65.1268 14.272 65.0481 14.7914C64.9693 16.7176 64.897 18.2777 64.8267 19.4696C64.7629 20.5296 64.7033 21.3873 64.648 22.0684C64.6331 22.0939 64.6203 22.1216 64.6054 22.1472C64.284 22.6793 63.9158 23.122 63.5007 23.4731C63.0857 23.8243 62.643 23.9861 62.1726 23.9542C61.781 23.9244 61.5064 23.7222 61.3489 23.3561C61.1914 22.9879 61.1105 22.526 61.102 21.9684C61.0935 21.4128 61.1489 20.785 61.2659 20.089C61.383 19.3909 61.5235 18.697 61.6873 18.0095C61.8534 17.3199 62.0215 16.6559 62.1939 16.0216C62.3663 15.3895 62.5068 14.8531 62.6153 14.4125C62.7409 14.023 62.7005 13.6889 62.4983 13.4143C62.2939 13.1419 62.0407 12.9439 61.7342 12.8269C61.4298 12.7077 61.1191 12.68 60.8062 12.7332C60.4933 12.7885 60.289 12.9567 60.1953 13.2398C59.2716 12.4395 58.3819 12.0095 57.5284 11.9457C56.6749 11.8818 55.8874 12.0734 55.1659 12.5097C54.4465 12.9482 53.808 13.5824 53.2525 14.4125C52.697 15.2426 52.2457 16.1472 51.9009 17.1262C51.5561 18.1053 51.3412 19.1035 51.2539 20.123C51.2262 20.4551 51.2198 20.7722 51.2241 21.0851C51.0581 21.3426 50.8942 21.6001 50.7154 21.8619C50.4813 22.2067 50.2493 22.5196 50.0215 22.8006C49.7938 23.0837 49.5831 23.305 49.3873 23.471C49.1915 23.6349 49.0318 23.7094 48.9063 23.6924C48.8275 23.3667 48.8084 22.9538 48.8467 22.46C48.8871 21.9662 48.9488 21.4341 49.034 20.8616C49.1191 20.289 49.2085 19.6995 49.3043 19.0865C49.3979 18.4778 49.4554 17.8861 49.4809 17.3135C49.5043 16.7431 49.4724 16.2132 49.3852 15.7279C49.3 15.2426 49.1297 14.8339 48.8807 14.5062C48.6615 14.238 48.3656 14.0422 47.9889 13.9187C47.6122 13.7932 47.1823 13.7421 46.697 13.7655C46.2117 13.7889 45.6988 13.8911 45.1581 14.072C44.6175 14.2529 44.0812 14.5062 43.5469 14.8361L44.9112 6.93968C44.9964 6.3267 44.609 5.6222 43.7236 5.50514C43.4597 5.47109 43.2149 5.4349 42.9723 5.48172C42.7275 5.52855 42.5083 5.63923 42.3125 5.8095C42.1166 5.9819 41.9953 6.23305 41.9485 6.56083C41.6505 8.41041 41.3887 10.0493 41.161 11.4732C40.9354 12.8992 40.7311 14.1763 40.5501 15.3043C40.3692 16.4324 40.2096 17.4412 40.0691 18.3352C39.9265 19.2291 39.7988 20.0677 39.6796 20.8488C39.5626 21.6321 39.4561 22.394 39.3625 23.1283C39.2688 23.8648 39.1667 24.6395 39.056 25.4526C38.9794 25.7335 39.056 25.9549 39.2922 26.1124C39.5264 26.2677 39.8052 26.355 40.1245 26.3699C40.4458 26.3848 40.7502 26.3273 41.0418 26.1933C41.3334 26.0592 41.4994 25.8527 41.5484 25.5718L42.7935 18.6161C42.8403 18.3799 43.0063 18.1096 43.2873 17.8052C43.5682 17.4987 43.9066 17.2178 44.2961 16.9602C44.6878 16.7006 45.0985 16.5026 45.5306 16.36C45.9605 16.2195 46.3564 16.2046 46.7161 16.3132C46.9673 16.3941 47.0886 16.6793 47.0801 17.1709C47.0737 17.6647 47.0141 18.2649 46.9056 18.9694C46.7949 19.6739 46.6714 20.438 46.531 21.2596C46.3905 22.0833 46.3117 22.858 46.2947 23.586C46.2798 24.3139 46.3607 24.9545 46.5416 25.5015C46.7204 26.0507 47.0694 26.4018 47.5866 26.5593C48.0868 26.7147 48.57 26.7296 49.0318 26.5955C49.4937 26.4614 49.9322 26.2401 50.3472 25.9251C50.7622 25.6143 51.1453 25.2333 51.4987 24.7864C51.6647 24.5778 51.8073 24.3522 51.9627 24.1351C52.1457 24.4416 52.3585 24.7204 52.6139 24.963C53.1695 25.4951 53.925 25.7612 54.8828 25.7612C55.3043 25.7612 55.7129 25.676 56.1045 25.5036C56.4962 25.3312 56.858 25.1269 57.1858 24.8928C57.5135 24.6565 57.803 24.4118 58.0541 24.1521C58.3053 23.8924 58.5011 23.6775 58.6416 23.5051C58.7523 24.067 58.9311 24.548 59.1822 24.9396C59.4312 25.3312 59.7186 25.6526 60.04 25.9017C60.3592 26.1528 60.6976 26.3359 61.051 26.455C61.4021 26.57 61.7427 26.6296 62.0726 26.6296C62.809 26.6296 63.4986 26.3784 64.1393 25.8782C64.3138 25.742 64.4692 25.5781 64.6331 25.427C64.7288 25.593 64.8502 25.7229 65.0077 25.808C65.2971 25.9634 65.5972 26.0272 65.9122 25.9932C66.2251 25.9634 66.5146 25.8655 66.7806 25.7016C67.0467 25.5356 67.2042 25.344 67.251 25.1248C67.268 24.6395 67.334 24.0478 67.4532 23.3518C67.5703 22.6537 67.732 21.9386 67.9342 21.2021C68.1385 20.4657 68.3812 19.742 68.6621 19.0397C68.9431 18.3352 69.2538 17.7137 69.5901 17.1709C69.9264 16.6303 70.2925 16.2195 70.682 15.9365C71.0736 15.6555 71.4801 15.5682 71.9037 15.6768C72.2166 15.7555 72.4209 15.9556 72.5145 16.2791C72.6082 16.5984 72.6465 16.9943 72.6316 17.4647C72.6146 17.935 72.5614 18.4586 72.4677 19.0397C72.3741 19.6186 72.2868 20.2146 72.2081 20.8254C72.1293 21.4363 72.0825 22.0365 72.0676 22.626C72.0527 23.2114 72.1144 23.752 72.2549 24.2458C72.3975 24.7395 72.6359 25.161 72.9722 25.5143C73.3084 25.8676 73.7895 26.1081 74.4173 26.2316C75.0431 26.3571 75.6412 26.2826 76.2137 26.0081C76.7863 25.7335 77.3141 25.3206 77.7994 24.7736C78.042 24.499 78.2719 24.1989 78.4932 23.869C78.7231 24.1755 78.97 24.4522 79.2552 24.6672C79.7 25.0056 80.1896 25.227 80.7238 25.3376C81.2559 25.4462 81.7965 25.4398 82.3457 25.3142C82.8948 25.1865 83.4141 24.9545 83.9079 24.6076C84.4017 24.2649 84.8508 23.8094 85.2594 23.2454C85.3382 23.5434 85.4659 23.8669 85.6468 24.2223C85.8256 24.5735 86.0491 24.9034 86.3151 25.2078C86.5833 25.5122 86.8877 25.7718 87.2325 25.9847C87.5773 26.1954 87.9519 26.3018 88.3605 26.3018C89.0331 26.3018 89.644 26.0953 90.1931 25.6909C90.7401 25.2823 91.2126 24.7842 91.6042 24.1862C91.9958 23.5902 92.3002 22.9602 92.5194 22.294C92.7387 21.6257 92.8642 21.0276 92.894 20.4955C92.9558 20.1826 92.9068 19.9081 92.7429 19.6739C92.5875 19.4462 92.3854 19.293 92.1427 19.2227ZM58.7906 16.4728C58.7118 16.9347 58.6054 17.4455 58.4734 17.9989C58.3394 18.5565 58.1712 19.1333 57.9669 19.7272C57.7647 20.3231 57.5135 20.8595 57.2156 21.3362C56.9197 21.8151 56.577 22.1918 56.1939 22.4771C55.8108 22.7559 55.3681 22.8772 54.8658 22.8282C54.6146 22.7984 54.4252 22.626 54.2911 22.3132C54.1592 22.0003 54.0889 21.6001 54.0804 21.1149C54.0719 20.6296 54.1145 20.0975 54.2081 19.5186C54.3039 18.9375 54.4465 18.3692 54.6423 17.8137C54.8381 17.2582 55.0765 16.7453 55.3596 16.2749C55.6427 15.8045 55.9662 15.4405 56.3344 15.1809C56.7026 14.9233 57.107 14.802 57.5455 14.8148C57.9839 14.8339 58.4522 15.0489 58.9545 15.4725C58.9247 15.6768 58.8672 16.011 58.7906 16.4728ZM84.8806 17.8839C84.8401 18.1585 84.7891 18.4437 84.7273 18.7417C84.6656 19.0376 84.5954 19.3377 84.5166 19.6356C84.4379 19.9315 84.3591 20.206 84.2804 20.4551C84.0782 21.1127 83.7845 21.6278 83.3992 21.996C83.0161 22.3642 82.6181 22.5877 82.2116 22.6644C81.7093 22.758 81.2516 22.6218 80.8366 22.2557C80.4216 21.8854 80.1981 21.2553 80.1662 20.3614C80.1491 19.9251 80.196 19.493 80.3066 19.0716C80.4152 18.6481 80.5727 18.2607 80.777 17.9074C80.9792 17.5562 81.2197 17.2518 81.4943 16.9922C81.7667 16.7325 82.069 16.5494 82.3989 16.4388C82.7905 16.3132 83.2013 16.3004 83.6333 16.4026C84.0654 16.5047 84.4996 16.7687 84.9381 17.1901C84.9402 17.3774 84.921 17.6094 84.8806 17.8839Z" fill="white"/>
<path d="M140.404 20.2571C140.279 19.9826 140.104 19.7591 139.876 19.5867C139.649 19.4143 139.41 19.3185 139.161 19.2929C138.91 19.2695 138.706 19.3674 138.55 19.5867C138.44 20.0081 138.225 20.4998 137.903 21.0574C137.582 21.6129 137.195 22.1173 136.741 22.5707C136.286 23.0262 135.792 23.3816 135.26 23.6392C134.728 23.8988 134.202 23.9414 133.687 23.769C133.436 23.6924 133.189 23.5689 132.946 23.405C132.702 23.239 132.474 23.0624 132.265 22.8644C132.055 22.6686 131.857 22.4622 131.678 22.2429C131.497 22.0258 131.344 21.8194 131.22 21.6321C131.752 21.4597 132.25 21.2745 132.712 21.0808C133.174 20.885 133.602 20.6487 133.994 20.3763C134.385 20.1017 134.73 19.7718 135.028 19.3909C135.324 19.0056 135.575 18.548 135.779 18.0159C135.922 17.6243 136.013 17.2114 136.062 16.7814C136.109 16.3515 136.096 15.9364 136.026 15.5363C135.956 15.1383 135.813 14.7786 135.603 14.4678C135.392 14.1528 135.113 13.9102 134.768 13.7378C134.392 13.5654 133.968 13.4888 133.5 13.5058C133.029 13.5207 132.555 13.6144 132.076 13.7868C131.599 13.9613 131.129 14.2039 130.667 14.5147C130.205 14.8275 129.794 15.1894 129.432 15.5959C129.464 15.017 129.488 14.3423 129.505 13.5739C129.52 12.8077 129.535 12.0181 129.552 11.2135C129.566 10.4068 129.577 9.61934 129.586 8.85099C129.594 8.08263 129.596 7.41005 129.596 6.83112C129.596 6.4544 129.473 6.17132 129.222 5.98402C128.971 5.79459 128.696 5.69456 128.4 5.67753C128.102 5.66263 127.821 5.73713 127.553 5.90314C127.285 6.06703 127.138 6.2969 127.106 6.59487C127.153 8.03793 127.159 9.57677 127.129 11.2135C127.098 12.8524 127.044 14.5147 126.966 16.2068C126.921 17.1645 126.863 18.101 126.812 19.0439C126.744 19.2376 126.68 19.4228 126.619 19.5654C126.399 20.1039 126.05 20.636 125.62 21.1766C125.188 21.7151 124.722 22.1918 124.222 22.5984C123.83 22.9134 123.439 23.156 123.047 23.3263C122.656 23.4987 122.283 23.571 121.932 23.5498C121.579 23.5263 121.27 23.3859 121.004 23.1262C120.736 22.8665 120.542 22.4494 120.414 21.8683C121.151 20.9446 121.857 19.9293 122.53 18.8268C123.203 17.7222 123.803 16.6026 124.328 15.4661C124.852 14.3316 125.28 13.2206 125.608 12.1415C125.935 11.0603 126.133 10.0791 126.195 9.19153C126.257 8.30611 126.172 7.56117 125.935 6.96096C125.701 6.35649 125.269 5.97763 124.646 5.82013C123.845 5.61793 123.122 5.60516 122.473 5.78608C121.823 5.96699 121.242 6.29264 120.734 6.76089C120.225 7.23127 119.782 7.82296 119.405 8.53385C119.029 9.24899 118.707 10.0259 118.441 10.873C118.222 11.5455 118.043 12.2415 117.901 12.9631C117.758 13.6846 117.641 14.4083 117.547 15.1383C117.454 15.8662 117.386 16.5877 117.347 17.2986C117.307 18.0116 117.288 18.6885 117.288 19.3313C117.288 20.2124 117.394 21.0319 117.567 21.813C117.505 21.9258 117.452 22.0407 117.383 22.1535C117.064 22.6856 116.696 23.1283 116.281 23.4795C115.866 23.8307 115.425 23.9925 114.953 23.9605C114.561 23.9307 114.287 23.7285 114.129 23.3625C113.972 22.9942 113.891 22.5324 113.882 21.9747C113.874 21.4192 113.929 20.7913 114.046 20.0954C114.165 19.3972 114.306 18.7034 114.47 18.0159C114.634 17.3263 114.802 16.6622 114.974 16.028C115.147 15.3958 115.287 14.8595 115.398 14.4189C115.523 14.0294 115.483 13.6952 115.278 13.4207C115.076 13.1482 114.821 12.9503 114.517 12.8332C114.21 12.714 113.901 12.6864 113.589 12.7396C113.276 12.7949 113.071 12.9631 112.978 13.2461C112.054 12.4459 111.164 12.0159 110.311 11.9521C109.455 11.8882 108.67 12.0798 107.948 12.5161C107.229 12.9546 106.59 13.5888 106.033 14.4189C105.477 15.249 105.026 16.1535 104.681 17.1326C104.336 18.1117 104.121 19.1099 104.036 20.1294C103.998 20.5679 103.996 20.9872 104.015 21.3916C103.989 21.432 103.97 21.4788 103.945 21.5171C103.615 22.0173 103.247 22.4174 102.84 22.7154C102.431 23.0134 102.001 23.2199 101.548 23.339C101.093 23.4561 100.671 23.5072 100.277 23.4923C99.839 23.4753 99.5176 23.2709 99.3154 22.8814C99.1111 22.4877 98.9855 21.9875 98.9387 21.3767C98.8919 20.7658 98.9004 20.0868 98.9621 19.344C99.0238 18.5991 99.1111 17.8669 99.2218 17.1475C99.3303 16.426 99.441 15.7598 99.5517 15.1489C99.6602 14.5402 99.7305 14.0698 99.7624 13.7378H103.711C104.006 13.6144 104.228 13.4058 104.368 13.1184C104.509 12.8268 104.57 12.5353 104.556 12.2373C104.541 11.9393 104.451 11.6733 104.285 11.437C104.121 11.2007 103.892 11.0688 103.591 11.0369H100.139L100.82 6.94819C100.867 6.49484 100.773 6.16281 100.539 5.94997C100.305 5.73925 100.026 5.62006 99.7049 5.59665C99.3835 5.57324 99.0749 5.63922 98.777 5.79672C98.479 5.95422 98.2917 6.18196 98.2129 6.47781L97.3914 11.0369C97.0295 11.0688 96.7337 11.0688 96.4996 11.0369C96.2633 11.0049 95.9674 11.0049 95.6056 11.0369C95.3098 11.1007 95.0778 11.2689 94.9139 11.5434C94.75 11.8159 94.6585 12.1074 94.6436 12.4139C94.6266 12.7162 94.6989 13.0056 94.8543 13.2696C95.0118 13.5377 95.2629 13.6931 95.6056 13.7378C95.795 13.7229 95.993 13.7229 96.2058 13.7378C96.4187 13.7548 96.6187 13.7548 96.806 13.7378C96.6485 14.7105 96.5038 15.6874 96.3697 16.6771C96.2356 17.6626 96.142 18.614 96.0888 19.5313C96.0334 20.4487 96.0419 21.3064 96.1122 22.1046C96.1824 22.9027 96.3463 23.6008 96.606 24.1968C96.8656 24.7928 97.2402 25.2567 97.734 25.593C98.2278 25.9315 98.8749 26.0975 99.673 26.0975C100.737 26.0975 101.678 25.9463 102.493 25.6399C103.306 25.3334 104.009 24.9077 104.596 24.3607C104.658 24.3011 104.709 24.2266 104.768 24.167C104.949 24.465 105.156 24.7353 105.405 24.9737C105.96 25.5058 106.718 25.7718 107.674 25.7718C108.097 25.7718 108.504 25.6867 108.895 25.5143C109.287 25.3419 109.647 25.1376 109.977 24.9034C110.307 24.6672 110.594 24.4224 110.847 24.1627C111.096 23.9031 111.292 23.6881 111.435 23.5157C111.543 24.0776 111.724 24.5586 111.975 24.9503C112.224 25.3419 112.512 25.6633 112.833 25.9123C113.154 26.1634 113.493 26.3465 113.844 26.4657C114.195 26.5806 114.536 26.6402 114.866 26.6402C115.602 26.6402 116.292 26.389 116.934 25.8889C117.518 25.4334 118.037 24.8736 118.512 24.233C118.597 24.3671 118.684 24.4969 118.778 24.6203C119.263 25.2461 119.865 25.6952 120.587 25.9591C121.308 26.2273 122.138 26.2337 123.079 25.9825C124.035 25.7314 124.973 25.2057 125.899 24.4075C126.123 24.2202 126.333 24.0031 126.542 23.786C126.497 24.4905 126.453 25.178 126.408 25.8399C126.393 26.074 126.448 26.272 126.574 26.4274C126.7 26.5849 126.855 26.7104 127.044 26.8041C127.232 26.8977 127.44 26.9573 127.668 26.9807C127.894 27.0042 128.106 26.9893 128.3 26.9339C128.498 26.8786 128.662 26.7934 128.796 26.6743C128.928 26.5572 128.996 26.404 128.996 26.2167V23.1156C129.215 23.4433 129.475 23.7903 129.771 24.15C130.067 24.5097 130.386 24.8438 130.722 25.1482C131.058 25.4526 131.422 25.7165 131.814 25.9357C132.206 26.1571 132.606 26.2975 133.012 26.3593C133.921 26.5019 134.77 26.4252 135.562 26.1379C136.354 25.8463 137.065 25.4355 137.699 24.9056C138.336 24.3713 138.883 23.7605 139.344 23.073C139.806 22.3855 140.17 21.7108 140.436 21.0531C140.538 20.7913 140.528 20.5317 140.404 20.2571ZM111.569 16.4728C111.49 16.9347 111.384 17.4455 111.252 17.9989C111.117 18.5565 110.949 19.1333 110.747 19.7271C110.543 20.3231 110.292 20.8595 109.994 21.3362C109.698 21.8151 109.355 22.1918 108.972 22.477C108.589 22.7559 108.146 22.8772 107.644 22.8282C107.393 22.7984 107.201 22.626 107.069 22.3132C106.935 22.0003 106.863 21.6001 106.859 21.1149C106.85 20.6296 106.893 20.0975 106.986 19.5186C107.08 18.9375 107.225 18.3692 107.42 17.8137C107.616 17.2582 107.855 16.7452 108.138 16.2749C108.419 15.8045 108.744 15.4405 109.112 15.1809C109.481 14.9233 109.883 14.802 110.324 14.8148C110.762 14.8339 111.232 15.0489 111.735 15.4725C111.701 15.6768 111.645 16.0109 111.569 16.4728ZM119.791 17.3199C119.844 16.9219 119.923 16.4685 120.027 15.9684C120.127 15.4661 120.246 14.9276 120.378 14.3465C120.512 13.7676 120.663 13.1951 120.838 12.6332C120.993 12.084 121.166 11.5541 121.355 11.0454C121.542 10.5367 121.734 10.094 121.932 9.71724C122.128 9.34264 122.328 9.04467 122.53 8.82544C122.732 8.60409 122.928 8.50405 123.117 8.51895C123.307 8.53385 123.418 8.66794 123.458 8.91909C123.496 9.16811 123.481 9.49376 123.411 9.8939C123.341 10.294 123.224 10.7559 123.06 11.2816C122.894 11.8073 122.694 12.3586 122.46 12.9375C122.27 13.4228 122.062 13.9166 121.836 14.4168C121.608 14.9169 121.374 15.4001 121.132 15.862C120.889 16.3238 120.648 16.7601 120.404 17.1667C120.161 17.5753 119.929 17.9265 119.71 18.2245C119.708 18.0202 119.737 17.7201 119.791 17.3199ZM130.018 19.4228H129.973C130.035 18.9226 130.231 18.4395 130.558 17.9755C130.888 17.5157 131.242 17.1262 131.616 16.8133C131.993 16.5026 132.353 16.2919 132.697 16.1919C133.042 16.0897 133.27 16.1408 133.378 16.3451C133.536 16.658 133.536 17.0155 133.378 17.4136C133.223 17.8116 132.972 18.184 132.627 18.5289C132.282 18.8758 131.876 19.1397 131.405 19.3291C130.935 19.5164 130.473 19.5484 130.018 19.4228Z" fill="white"/>
<path d="M30.0124 24.0031C33.5264 17.9265 32.3175 9.85133 27.1178 4.65163C20.9135 -1.55054 10.8546 -1.55054 4.65243 4.65163C-1.54975 10.8559 -1.55187 20.9127 4.65243 27.1148C9.86064 32.323 17.9316 33.5128 24.0103 29.9775C24.0124 29.9775 24.0124 29.9797 24.0145 29.9797C26.0216 28.924 28.1522 28.9814 29.11 29.3241C29.3888 29.4242 29.3994 29.3986 29.3164 29.1602C28.9823 28.2131 28.9397 26.0506 30.0167 24.0031C30.0167 24.0031 30.0145 24.0031 30.0124 24.0031ZM26.6346 14.868C26.6091 14.9042 26.5495 14.9744 26.5495 14.9765C24.7744 17.2944 20.7474 21.3852 20.3132 22.2493C20.0983 22.6792 20.6729 23.1028 21.0177 22.9027C21.2753 22.7537 21.6456 22.3557 22.1756 21.7576C23.0908 20.7296 23.425 20.4274 24.4424 19.2631V19.261C24.4551 19.2482 24.4658 19.2376 24.4764 19.2248C24.4764 19.2248 24.4764 19.2227 24.4785 19.2227H24.4764C24.5552 19.1376 24.6467 19.0631 24.7552 19.0056C25.2661 18.7353 25.9003 18.9269 26.1727 19.4398C26.3324 19.7378 26.3324 20.0805 26.2025 20.3635C26.2025 20.3635 26.2025 20.3635 26.2025 20.3657C25.2448 22.6686 23.0419 24.9204 21.1348 25.9336C15.684 28.8388 8.93266 26.7764 6.02738 21.3575C6.02738 21.3554 6.02738 21.3532 6.02738 21.3532C6.01461 21.3298 6.00397 21.3128 5.99333 21.2915L5.43143 20.1315C5.4293 20.1273 5.42717 20.1188 5.42291 20.1166C5.42078 20.1124 5.42079 20.1081 5.41866 20.106C4.90146 18.8651 4.68223 17.4944 4.64817 16.1344C4.59283 14.0507 5.55275 11.6328 5.55275 11.6328C6.48073 8.86162 9.65631 9.8492 9.04759 11.8669C8.51336 13.6314 8.31968 13.957 8.37714 15.1149C8.59211 16.6601 10.7056 16.575 11.3952 15.8024C11.4059 15.7896 11.8379 15.3575 18.3913 7.90809C18.3913 7.90809 18.6978 7.59309 18.9021 7.48454C19.6279 7.09504 20.6346 7.37174 21.022 8.09965C21.303 8.6275 21.1944 9.18088 20.8602 9.62997L20.8007 9.71298C18.8766 12.2777 17.5229 13.808 15.0178 16.4536C15.0156 16.4558 15.0114 16.46 15.0093 16.4622C14.8752 16.6601 14.9816 16.8772 15.0199 16.9496C15.1476 17.1901 15.4498 17.2837 15.6925 17.1539L15.6946 17.1496C15.7691 17.1028 15.8372 17.0368 15.9053 16.9708C18.3785 14.4295 20.7155 11.7754 22.6673 9.28092C22.7822 9.13831 22.9227 9.01274 23.0951 8.92335C23.7528 8.57429 24.5701 8.82118 24.917 9.47886C25.1767 9.96626 25.1298 10.5218 24.8084 10.9283L24.7041 11.0666C22.9163 13.4611 20.6836 16.1557 17.7996 19.1844C17.64 19.3525 17.5761 19.5845 17.6868 19.7952C17.8166 20.0379 18.1189 20.1294 18.3615 20.0017C18.4211 19.9676 18.4679 19.9251 18.5147 19.874V19.8719C20.6708 17.6817 22.6949 15.4341 24.4679 13.261L24.4913 13.2355C24.5956 13.1099 24.7276 12.9992 24.8851 12.9162C25.5406 12.5672 26.3537 12.8162 26.7027 13.4718C26.956 13.9272 26.9092 14.4657 26.6346 14.868Z" fill="white"/>
</svg>
