<svg width="102" height="22" viewBox="0 0 102 22" fill="none" xmlns="http://www.w3.org/2000/svg">
<path d="M53.1427 14.2227C52.8979 14.1525 52.651 14.1823 52.402 14.3185C52.153 14.4505 51.9721 14.7272 51.8635 15.1507C51.8316 15.7147 51.7295 16.2319 51.5571 16.7023C51.3847 17.1727 51.1803 17.5622 50.9462 17.8772C50.7121 18.1901 50.4694 18.4199 50.2183 18.5689C49.9671 18.7179 49.7394 18.7477 49.5372 18.6541C49.1605 18.4795 48.9072 18.0517 48.7731 17.3749C48.6411 16.6895 48.5858 15.8573 48.6092 14.8719C48.6326 13.8822 48.7241 12.7946 48.8795 11.6026C49.037 10.4107 49.2115 9.21883 49.4074 8.03118C49.6032 6.8414 49.799 5.70909 49.9948 4.63637C50.1906 3.56365 50.3439 2.65057 50.4524 1.89924C50.5141 1.50549 50.4332 1.19474 50.2055 0.958485C49.9778 0.722232 49.7117 0.575377 49.4052 0.511525C49.1009 0.449801 48.8072 0.488112 48.5262 0.630715C48.2431 0.77119 48.0707 1.03086 48.0069 1.40333C47.9132 1.95459 47.7876 2.59949 47.6301 3.3423C47.4748 4.08512 47.313 4.83432 47.1491 5.58565C46.9852 6.33697 46.832 7.04148 46.6894 7.70128C46.5489 8.35896 46.4318 8.86126 46.3361 9.20606C45.6316 8.79741 44.9611 8.56116 44.3268 8.49944C43.6926 8.43771 43.1009 8.49305 42.5539 8.66119C41.8643 8.88042 41.2492 9.25502 40.7086 9.78073C40.1701 10.3043 39.7189 10.9194 39.357 11.6239C38.9973 12.3284 38.7419 13.0883 38.5929 13.9035C38.4524 14.6676 38.4312 15.4104 38.5057 16.1319C38.495 16.1511 38.4886 16.1745 38.4801 16.1957C38.2141 16.7342 37.9395 17.1812 37.6564 17.5345C37.3755 17.8878 37.0966 18.1432 36.8221 18.2986C36.5475 18.454 36.2943 18.5178 36.0601 18.4859C35.9175 18.4689 35.8451 18.3178 35.8366 18.0283C35.8302 17.7389 35.8515 17.3579 35.9069 16.8875C35.9601 16.4171 36.0282 15.8807 36.1069 15.2763C36.1857 14.6718 36.2432 14.0546 36.2836 13.4224C36.3219 12.7882 36.3262 12.156 36.2942 11.5303C36.2623 10.9024 36.1623 10.3277 35.9899 9.80202C35.8175 9.28056 35.5557 8.83359 35.2024 8.46325C34.8491 8.09504 34.3829 7.84814 33.804 7.72469C33.24 7.61402 32.7143 7.62679 32.229 7.75875C31.7437 7.89071 31.301 8.10355 30.9009 8.39302C30.5029 8.68461 30.1304 9.01663 29.7856 9.39336C29.4408 9.76796 29.1258 10.1447 28.8448 10.5193V10.0042C28.8278 9.48488 28.6916 9.08475 28.434 8.8038C28.1744 8.52072 27.8828 8.3696 27.5508 8.34619C27.223 8.32491 26.908 8.42919 26.6121 8.66119C26.3141 8.89744 26.1268 9.27204 26.0481 9.79137C25.9693 11.7176 25.897 13.2777 25.8267 14.4696C25.7629 15.5296 25.7033 16.3873 25.648 17.0684C25.6331 17.0939 25.6203 17.1216 25.6054 17.1472C25.284 17.6793 24.9158 18.122 24.5007 18.4731C24.0857 18.8243 23.643 18.9861 23.1726 18.9542C22.781 18.9244 22.5064 18.7222 22.3489 18.3561C22.1914 17.9879 22.1105 17.526 22.102 16.9684C22.0935 16.4128 22.1489 15.785 22.2659 15.089C22.383 14.3909 22.5235 13.697 22.6873 13.0095C22.8534 12.3199 23.0215 11.6559 23.1939 11.0216C23.3663 10.3895 23.5068 9.8531 23.6153 9.41252C23.7409 9.02302 23.7005 8.68886 23.4983 8.41429C23.2939 8.14186 23.0407 7.94392 22.7342 7.82686C22.4298 7.70767 22.1191 7.68 21.8062 7.73321C21.4933 7.78855 21.289 7.95669 21.1953 8.23977C20.2716 7.43949 19.3819 7.00955 18.5284 6.94569C17.6749 6.88184 16.8874 7.0734 16.1659 7.50972C15.4465 7.94817 14.808 8.58244 14.2525 9.41252C13.697 10.2426 13.2457 11.1472 12.9009 12.1262C12.5561 13.1053 12.3412 14.1035 12.2539 15.123C12.2262 15.4551 12.2198 15.7722 12.2241 16.0851C12.0581 16.3426 11.8942 16.6001 11.7154 16.8619C11.4813 17.2067 11.2493 17.5196 11.0215 17.8006C10.7938 18.0837 10.5831 18.305 10.3873 18.471C10.1915 18.6349 10.0318 18.7094 9.90626 18.6924C9.82751 18.3667 9.80835 17.9538 9.84666 17.46C9.8871 16.9662 9.94883 16.4341 10.034 15.8616C10.1191 15.289 10.2085 14.6995 10.3043 14.0865C10.3979 13.4778 10.4554 12.8861 10.4809 12.3135C10.5043 11.7431 10.4724 11.2132 10.3852 10.7279C10.3 10.2426 10.1297 9.83394 9.88072 9.50617C9.66149 9.23799 9.36564 9.04218 8.98892 8.91873C8.61219 8.79316 8.18225 8.74207 7.69698 8.76549C7.2117 8.7889 6.69875 8.89106 6.15814 9.07198C5.61752 9.25289 5.08116 9.50617 4.54693 9.83607L5.91124 1.93968C5.99638 1.3267 5.60901 0.622203 4.72359 0.50514C4.45967 0.471086 4.2149 0.434899 3.97227 0.481724C3.7275 0.528549 3.50827 0.639228 3.31246 0.809501C3.11665 0.981902 2.99533 1.23305 2.9485 1.56083C2.65053 3.41041 2.38873 5.04928 2.16099 6.47319C1.93538 7.89922 1.73105 9.17626 1.55014 10.3043C1.36922 11.4324 1.20959 12.4412 1.06912 13.3352C0.926513 14.2291 0.798812 15.0677 0.679621 15.8488C0.562559 16.6321 0.456134 17.394 0.362484 18.1283C0.268834 18.8648 0.16667 19.6395 0.055993 20.4526C-0.0206297 20.7335 0.0559964 20.9549 0.292249 21.1124C0.526374 21.2677 0.805196 21.355 1.12446 21.3699C1.44585 21.3848 1.75021 21.3273 2.0418 21.1933C2.33339 21.0592 2.49941 20.8527 2.54836 20.5718L3.79348 13.6161C3.84031 13.3799 4.00632 13.1096 4.28727 12.8052C4.56822 12.4987 4.90664 12.2178 5.29614 11.9602C5.68776 11.7006 6.09854 11.5026 6.53061 11.36C6.96055 11.2195 7.35643 11.2046 7.71613 11.3132C7.96728 11.3941 8.0886 11.6793 8.08009 12.1709C8.0737 12.6647 8.01411 13.2649 7.90556 13.9694C7.79488 14.6739 7.67144 15.438 7.53096 16.2596C7.39049 17.0833 7.31173 17.858 7.29471 18.586C7.27981 19.3139 7.36069 19.9545 7.5416 20.5015C7.72039 21.0507 8.06945 21.4018 8.58665 21.5593C9.08683 21.7147 9.56998 21.7296 10.0318 21.5955C10.4937 21.4614 10.9322 21.2401 11.3472 20.9251C11.7622 20.6143 12.1453 20.2333 12.4987 19.7864C12.6647 19.5778 12.8073 19.3522 12.9627 19.1351C13.1457 19.4416 13.3585 19.7204 13.6139 19.963C14.1695 20.4951 14.925 20.7612 15.8828 20.7612C16.3043 20.7612 16.7129 20.676 17.1045 20.5036C17.4962 20.3312 17.858 20.1269 18.1858 19.8928C18.5135 19.6565 18.803 19.4118 19.0541 19.1521C19.3053 18.8924 19.5011 18.6775 19.6416 18.5051C19.7523 19.067 19.9311 19.548 20.1822 19.9396C20.4312 20.3312 20.7186 20.6526 21.04 20.9017C21.3592 21.1528 21.6976 21.3359 22.051 21.455C22.4021 21.57 22.7427 21.6296 23.0726 21.6296C23.809 21.6296 24.4986 21.3784 25.1393 20.8782C25.3138 20.742 25.4692 20.5781 25.6331 20.427C25.7288 20.593 25.8502 20.7229 26.0077 20.808C26.2971 20.9634 26.5972 21.0272 26.9122 20.9932C27.2251 20.9634 27.5146 20.8655 27.7806 20.7016C28.0467 20.5356 28.2042 20.344 28.251 20.1248C28.268 19.6395 28.334 19.0478 28.4532 18.3518C28.5703 17.6537 28.732 16.9386 28.9342 16.2021C29.1385 15.4657 29.3812 14.742 29.6621 14.0397C29.9431 13.3352 30.2538 12.7137 30.5901 12.1709C30.9264 11.6303 31.2925 11.2195 31.682 10.9365C32.0736 10.6555 32.4801 10.5682 32.9037 10.6768C33.2166 10.7555 33.4209 10.9556 33.5145 11.2791C33.6082 11.5984 33.6465 11.9943 33.6316 12.4647C33.6146 12.935 33.5614 13.4586 33.4677 14.0397C33.3741 14.6186 33.2868 15.2146 33.2081 15.8254C33.1293 16.4363 33.0825 17.0365 33.0676 17.626C33.0527 18.2114 33.1144 18.752 33.2549 19.2458C33.3975 19.7395 33.6359 20.161 33.9722 20.5143C34.3084 20.8676 34.7895 21.1081 35.4173 21.2316C36.0431 21.3571 36.6412 21.2826 37.2137 21.0081C37.7863 20.7335 38.3141 20.3206 38.7994 19.7736C39.042 19.499 39.2719 19.1989 39.4932 18.869C39.7231 19.1755 39.97 19.4522 40.2552 19.6672C40.7 20.0056 41.1896 20.227 41.7238 20.3376C42.2559 20.4462 42.7965 20.4398 43.3457 20.3142C43.8948 20.1865 44.4141 19.9545 44.9079 19.6076C45.4017 19.2649 45.8508 18.8094 46.2594 18.2454C46.3382 18.5434 46.4659 18.8669 46.6468 19.2223C46.8256 19.5735 47.0491 19.9034 47.3151 20.2078C47.5833 20.5122 47.8877 20.7718 48.2325 20.9847C48.5773 21.1954 48.9519 21.3018 49.3605 21.3018C50.0331 21.3018 50.644 21.0953 51.1931 20.6909C51.7401 20.2823 52.2126 19.7842 52.6042 19.1862C52.9958 18.5902 53.3002 17.9602 53.5194 17.294C53.7387 16.6257 53.8642 16.0276 53.894 15.4955C53.9558 15.1826 53.9068 14.9081 53.7429 14.6739C53.5875 14.4462 53.3854 14.293 53.1427 14.2227ZM19.7906 11.4728C19.7118 11.9347 19.6054 12.4455 19.4734 12.9989C19.3394 13.5565 19.1712 14.1333 18.9669 14.7272C18.7647 15.3231 18.5135 15.8595 18.2156 16.3362C17.9197 16.8151 17.577 17.1918 17.1939 17.4771C16.8108 17.7559 16.3681 17.8772 15.8658 17.8282C15.6146 17.7984 15.4252 17.626 15.2911 17.3132C15.1592 17.0003 15.0889 16.6001 15.0804 16.1149C15.0719 15.6296 15.1145 15.0975 15.2081 14.5186C15.3039 13.9375 15.4465 13.3692 15.6423 12.8137C15.8381 12.2582 16.0765 11.7453 16.3596 11.2749C16.6427 10.8045 16.9662 10.4405 17.3344 10.1809C17.7026 9.92334 18.107 9.80202 18.5455 9.81479C18.9839 9.83395 19.4522 10.0489 19.9545 10.4725C19.9247 10.6768 19.8672 11.011 19.7906 11.4728ZM45.8806 12.8839C45.8401 13.1585 45.7891 13.4437 45.7273 13.7417C45.6656 14.0376 45.5954 14.3377 45.5166 14.6356C45.4379 14.9315 45.3591 15.206 45.2804 15.4551C45.0782 16.1127 44.7845 16.6278 44.3992 16.996C44.0161 17.3642 43.6181 17.5877 43.2116 17.6644C42.7093 17.758 42.2516 17.6218 41.8366 17.2557C41.4216 16.8854 41.1981 16.2553 41.1662 15.3614C41.1491 14.9251 41.196 14.493 41.3066 14.0716C41.4152 13.6481 41.5727 13.2607 41.777 12.9074C41.9792 12.5562 42.2197 12.2518 42.4943 11.9922C42.7667 11.7325 43.069 11.5494 43.3989 11.4388C43.7905 11.3132 44.2013 11.3004 44.6333 11.4026C45.0654 11.5047 45.4996 11.7687 45.9381 12.1901C45.9402 12.3774 45.921 12.6094 45.8806 12.8839Z" fill="white"/>
<path d="M101.404 15.2571C101.279 14.9826 101.104 14.7591 100.876 14.5867C100.649 14.4143 100.41 14.3185 100.161 14.2929C99.9102 14.2695 99.7059 14.3674 99.5505 14.5867C99.4398 15.0081 99.2248 15.4998 98.9035 16.0574C98.5821 16.6129 98.1947 17.1173 97.7413 17.5707C97.2859 18.0262 96.7921 18.3816 96.26 18.6392C95.7279 18.8988 95.2021 18.9414 94.6871 18.769C94.4359 18.6924 94.189 18.5689 93.9464 18.405C93.7016 18.239 93.4739 18.0624 93.2653 17.8644C93.0546 17.6686 92.8567 17.4622 92.6779 17.2429C92.497 17.0258 92.3437 16.8194 92.2203 16.6321C92.7524 16.4597 93.2504 16.2745 93.7123 16.0808C94.1741 15.885 94.6019 15.6487 94.9936 15.3763C95.3852 15.1017 95.73 14.7718 96.028 14.3909C96.3238 14.0056 96.575 13.548 96.7793 13.0159C96.9219 12.6243 97.0134 12.2114 97.0624 11.7814C97.1092 11.3515 97.0964 10.9364 97.0262 10.5363C96.956 10.1383 96.8134 9.77859 96.6026 9.46785C96.3919 9.15284 96.1131 8.91021 95.7683 8.73781C95.3916 8.5654 94.968 8.48878 94.4998 8.50581C94.0294 8.52071 93.5548 8.61435 93.0759 8.78676C92.5991 8.96128 92.1287 9.20393 91.6669 9.51467C91.205 9.82755 90.7942 10.1894 90.4324 10.5959C90.4643 10.017 90.4877 9.34227 90.5048 8.57391C90.5197 7.80769 90.5345 7.01805 90.5516 6.21351C90.5665 5.40685 90.5771 4.61934 90.5856 3.85099C90.5942 3.08263 90.5963 2.41005 90.5963 1.83112C90.5963 1.4544 90.4728 1.17132 90.2217 0.984022C89.9705 0.794594 89.696 0.694558 89.4001 0.677531C89.1021 0.662632 88.8212 0.737126 88.553 0.903141C88.2848 1.06703 88.138 1.2969 88.106 1.59487C88.1529 3.03793 88.1592 4.57677 88.1295 6.21351C88.0975 7.85239 88.0443 9.51468 87.9656 11.2068C87.9209 12.1645 87.8634 13.101 87.8123 14.0439C87.7442 14.2376 87.6804 14.4228 87.6186 14.5654C87.3994 15.1039 87.0504 15.636 86.6204 16.1766C86.1884 16.7151 85.7222 17.1918 85.2221 17.5984C84.8304 17.9134 84.4388 18.156 84.0472 18.3263C83.6555 18.4987 83.2831 18.571 82.9319 18.5498C82.5786 18.5263 82.27 18.3859 82.0039 18.1262C81.7357 17.8665 81.542 17.4494 81.4143 16.8683C82.1508 15.9446 82.8574 14.9293 83.53 13.8268C84.2025 12.7222 84.8028 11.6026 85.3285 10.4661C85.8521 9.33163 86.2799 8.2206 86.6076 7.1415C86.9354 6.06027 87.1334 5.07907 87.1951 4.19153C87.2568 3.30611 87.1717 2.56117 86.9354 1.96096C86.7013 1.35649 86.2692 0.977633 85.6456 0.82013C84.8453 0.617932 84.1217 0.605161 83.4725 0.786075C82.8233 0.96699 82.2423 1.29264 81.7336 1.76089C81.2249 2.23127 80.7822 2.82296 80.4055 3.53385C80.0287 4.24899 79.7074 5.02587 79.4413 5.87297C79.2221 6.54555 79.0433 7.24153 78.9007 7.96306C78.7581 8.68459 78.641 9.40825 78.5474 10.1383C78.4537 10.8662 78.3856 11.5877 78.3473 12.2986C78.3069 13.0116 78.2877 13.6885 78.2877 14.3313C78.2877 15.2124 78.3941 16.0319 78.5665 16.813C78.5048 16.9258 78.4516 17.0407 78.3835 17.1535C78.0642 17.6856 77.696 18.1283 77.281 18.4795C76.8659 18.8307 76.4253 18.9925 75.9528 18.9605C75.5612 18.9307 75.2867 18.7285 75.1292 18.3625C74.9716 17.9942 74.8908 17.5324 74.8822 16.9747C74.8737 16.4192 74.9291 15.7913 75.0461 15.0954C75.1653 14.3972 75.3058 13.7034 75.4697 13.0159C75.6336 12.3263 75.8017 11.6622 75.9741 11.028C76.1465 10.3958 76.287 9.85947 76.3977 9.41889C76.5232 9.02939 76.4828 8.69524 76.2785 8.42068C76.0763 8.14824 75.8209 7.9503 75.5165 7.83323C75.21 7.71404 74.9014 7.68637 74.5885 7.73958C74.2757 7.79492 74.0713 7.96307 73.9777 8.24614C73.0539 7.44586 72.1643 7.01592 71.3108 6.95207C70.4552 6.88822 69.6698 7.07978 68.9482 7.5161C68.2288 7.95455 67.5903 8.58881 67.0327 9.41889C66.4772 10.249 66.026 11.1535 65.6812 12.1326C65.3363 13.1117 65.1214 14.1099 65.0362 15.1294C64.9979 15.5679 64.9958 15.9872 65.015 16.3916C64.9894 16.432 64.9703 16.4788 64.9447 16.5171C64.6148 17.0173 64.2466 17.4174 63.8401 17.7154C63.4314 18.0134 63.0015 18.2199 62.5481 18.339C62.0926 18.4561 61.6712 18.5072 61.2775 18.4923C60.839 18.4753 60.5176 18.2709 60.3154 17.8814C60.1111 17.4877 59.9855 16.9875 59.9387 16.3767C59.8919 15.7658 59.9004 15.0868 59.9621 14.344C60.0238 13.5991 60.1111 12.8669 60.2218 12.1475C60.3303 11.426 60.441 10.7598 60.5517 10.1489C60.6602 9.54022 60.7305 9.06984 60.7624 8.73781H64.7106C65.0064 8.61436 65.2278 8.40577 65.3683 8.11844C65.5087 7.82685 65.5705 7.53525 65.5556 7.23728C65.5407 6.9393 65.4513 6.67325 65.2853 6.437C65.1214 6.20075 64.8915 6.06878 64.5914 6.03686H61.1391L61.8202 1.94819C61.867 1.49484 61.7734 1.16281 61.5393 0.949967C61.3051 0.739254 61.0263 0.620063 60.7049 0.59665C60.3835 0.573238 60.0749 0.639219 59.777 0.796721C59.479 0.954223 59.2917 1.18196 59.2129 1.47781L58.3914 6.03686C58.0295 6.06878 57.7337 6.06878 57.4996 6.03686C57.2633 6.00493 56.9674 6.00493 56.6056 6.03686C56.3098 6.10071 56.0778 6.26886 55.9139 6.54342C55.75 6.81586 55.6585 7.10745 55.6436 7.41394C55.6266 7.71617 55.6989 8.00563 55.8543 8.26955C56.0118 8.53773 56.2629 8.69311 56.6056 8.73781C56.795 8.72291 56.993 8.72291 57.2058 8.73781C57.4187 8.75483 57.6187 8.75483 57.806 8.73781C57.6485 9.71049 57.5038 10.6874 57.3697 11.6771C57.2356 12.6626 57.142 13.614 57.0888 14.5313C57.0334 15.4487 57.0419 16.3064 57.1122 17.1046C57.1824 17.9027 57.3463 18.6008 57.606 19.1968C57.8656 19.7928 58.2402 20.2567 58.734 20.593C59.2278 20.9315 59.8749 21.0975 60.673 21.0975C61.7372 21.0975 62.678 20.9463 63.4931 20.6399C64.3062 20.3334 65.0086 19.9077 65.596 19.3607C65.6577 19.3011 65.7088 19.2266 65.7684 19.167C65.9493 19.465 66.1558 19.7353 66.4048 19.9737C66.9603 20.5058 67.718 20.7718 68.6737 20.7718C69.0972 20.7718 69.5038 20.6867 69.8954 20.5143C70.287 20.3419 70.6467 20.1376 70.9766 19.9034C71.3065 19.6672 71.5939 19.4224 71.8471 19.1627C72.0962 18.9031 72.292 18.6881 72.4346 18.5157C72.5431 19.0776 72.7241 19.5586 72.9752 19.9503C73.2242 20.3419 73.5116 20.6633 73.8329 20.9123C74.1543 21.1634 74.4928 21.3465 74.8439 21.4657C75.1951 21.5806 75.5357 21.6402 75.8656 21.6402C76.602 21.6402 77.2916 21.389 77.9344 20.8889C78.5176 20.4334 79.0369 19.8736 79.5115 19.233C79.5967 19.3671 79.6839 19.4969 79.7776 19.6203C80.2629 20.2461 80.8652 20.6952 81.5867 20.9591C82.3083 21.2273 83.1383 21.2337 84.0791 20.9825C85.0348 20.7314 85.9734 20.2057 86.8992 19.4075C87.1227 19.2202 87.3334 19.0031 87.542 18.786C87.4973 19.4905 87.4526 20.178 87.4079 20.8399C87.393 21.074 87.4484 21.272 87.5739 21.4274C87.6995 21.5849 87.8549 21.7104 88.0443 21.8041C88.2316 21.8977 88.4402 21.9573 88.6679 21.9807C88.8936 22.0042 89.1064 21.9893 89.3001 21.9339C89.498 21.8786 89.6619 21.7934 89.796 21.6743C89.928 21.5572 89.9961 21.404 89.9961 21.2167V18.1156C90.2153 18.4433 90.475 18.7903 90.7708 19.15C91.0667 19.5097 91.3859 19.8438 91.7222 20.1482C92.0585 20.4526 92.4225 20.7165 92.8141 20.9357C93.2057 21.1571 93.6058 21.2975 94.0124 21.3593C94.9212 21.5019 95.7704 21.4252 96.5622 21.1379C97.354 20.8463 98.0649 20.4355 98.6991 19.9056C99.3355 19.3713 99.8825 18.7605 100.344 18.073C100.806 17.3855 101.17 16.7108 101.436 16.0531C101.538 15.7913 101.528 15.5317 101.404 15.2571ZM72.5687 11.4728C72.4899 11.9347 72.3835 12.4455 72.2515 12.9989C72.1175 13.5565 71.9493 14.1333 71.7471 14.7271C71.5428 15.3231 71.2916 15.8595 70.9937 16.3362C70.6978 16.8151 70.3551 17.1918 69.972 17.477C69.5889 17.7559 69.1462 17.8772 68.6439 17.8282C68.3927 17.7984 68.2012 17.626 68.0692 17.3132C67.9351 17.0003 67.8628 16.6001 67.8585 16.1149C67.85 15.6296 67.8926 15.0975 67.9862 14.5186C68.0799 13.9375 68.2246 13.3692 68.4204 12.8137C68.6162 12.2582 68.8546 11.7452 69.1377 11.2749C69.4186 10.8045 69.7443 10.4405 70.1125 10.1809C70.4807 9.92333 70.883 9.80201 71.3236 9.81478C71.762 9.83393 72.2324 10.0489 72.7347 10.4725C72.7006 10.6768 72.6453 11.0109 72.5687 11.4728ZM80.7907 12.3199C80.8439 11.9219 80.9227 11.4685 81.027 10.9684C81.127 10.4661 81.2462 9.92758 81.3781 9.34653C81.5122 8.7676 81.6633 8.19506 81.8379 7.63316C81.9933 7.08403 82.1657 6.55406 82.3551 6.04537C82.5424 5.53668 82.7339 5.09397 82.9319 4.71724C83.1277 4.34264 83.3278 4.04467 83.53 3.82544C83.7322 3.60409 83.928 3.50405 84.1174 3.51895C84.3068 3.53385 84.4175 3.66794 84.4579 3.91909C84.4963 4.16811 84.4814 4.49376 84.4111 4.8939C84.3409 5.29404 84.2238 5.75591 84.0599 6.28162C83.8939 6.80734 83.6939 7.3586 83.4597 7.93752C83.2703 8.4228 83.0617 8.91659 82.8361 9.41677C82.6084 9.91694 82.3742 10.4001 82.1316 10.862C81.889 11.3238 81.6485 11.7601 81.4037 12.1667C81.1611 12.5753 80.9291 12.9265 80.7098 13.2245C80.7077 13.0202 80.7375 12.7201 80.7907 12.3199ZM91.0177 14.4228H90.973C91.0347 13.9226 91.2305 13.4395 91.5583 12.9755C91.8882 12.5157 92.2415 12.1262 92.6161 11.8133C92.9929 11.5026 93.3526 11.2919 93.6974 11.1919C94.0422 11.0897 94.2699 11.1408 94.3785 11.3451C94.536 11.658 94.536 12.0155 94.3785 12.4136C94.2231 12.8116 93.9719 13.184 93.6271 13.5289C93.2823 13.8758 92.8758 14.1397 92.4054 14.3291C91.935 14.5164 91.4732 14.5484 91.0177 14.4228Z" fill="white"/>
</svg>
