<svg width="33" height="32" viewBox="0 0 33 32" fill="none" xmlns="http://www.w3.org/2000/svg">
<path d="M30.0124 24.0031C33.5264 17.9265 32.3175 9.85133 27.1178 4.65163C20.9135 -1.55054 10.8546 -1.55054 4.65243 4.65163C-1.54975 10.8559 -1.55187 20.9127 4.65243 27.1148C9.86064 32.323 17.9316 33.5128 24.0103 29.9775C24.0124 29.9775 24.0124 29.9797 24.0145 29.9797C26.0216 28.924 28.1522 28.9814 29.11 29.3241C29.3888 29.4242 29.3994 29.3986 29.3164 29.1602C28.9823 28.2131 28.9397 26.0506 30.0167 24.0031C30.0167 24.0031 30.0145 24.0031 30.0124 24.0031ZM26.6346 14.868C26.6091 14.9042 26.5495 14.9744 26.5495 14.9765C24.7744 17.2944 20.7474 21.3852 20.3132 22.2493C20.0983 22.6792 20.6729 23.1028 21.0177 22.9027C21.2753 22.7537 21.6456 22.3557 22.1756 21.7576C23.0908 20.7296 23.425 20.4274 24.4424 19.2631V19.261C24.4551 19.2482 24.4658 19.2376 24.4764 19.2248C24.4764 19.2248 24.4764 19.2227 24.4785 19.2227H24.4764C24.5552 19.1376 24.6467 19.0631 24.7552 19.0056C25.2661 18.7353 25.9003 18.9269 26.1727 19.4398C26.3324 19.7378 26.3324 20.0805 26.2025 20.3635C26.2025 20.3635 26.2025 20.3635 26.2025 20.3657C25.2448 22.6686 23.0419 24.9204 21.1348 25.9336C15.684 28.8388 8.93266 26.7764 6.02738 21.3575C6.02738 21.3554 6.02738 21.3532 6.02738 21.3532C6.01461 21.3298 6.00397 21.3128 5.99333 21.2915L5.43143 20.1315C5.4293 20.1273 5.42717 20.1188 5.42291 20.1166C5.42078 20.1124 5.42079 20.1081 5.41866 20.106C4.90146 18.8651 4.68223 17.4944 4.64817 16.1344C4.59283 14.0507 5.55275 11.6328 5.55275 11.6328C6.48073 8.86162 9.65631 9.8492 9.04759 11.8669C8.51336 13.6314 8.31968 13.957 8.37714 15.1149C8.59211 16.6601 10.7056 16.575 11.3952 15.8024C11.4059 15.7896 11.8379 15.3575 18.3913 7.90809C18.3913 7.90809 18.6978 7.59309 18.9021 7.48454C19.6279 7.09504 20.6346 7.37174 21.022 8.09965C21.303 8.6275 21.1944 9.18088 20.8602 9.62997L20.8007 9.71298C18.8766 12.2777 17.5229 13.808 15.0178 16.4536C15.0156 16.4558 15.0114 16.46 15.0093 16.4622C14.8752 16.6601 14.9816 16.8772 15.0199 16.9496C15.1476 17.1901 15.4498 17.2837 15.6925 17.1539L15.6946 17.1496C15.7691 17.1028 15.8372 17.0368 15.9053 16.9708C18.3785 14.4295 20.7155 11.7754 22.6673 9.28092C22.7822 9.13831 22.9227 9.01274 23.0951 8.92335C23.7528 8.57429 24.5701 8.82118 24.917 9.47886C25.1767 9.96626 25.1298 10.5218 24.8084 10.9283L24.7041 11.0666C22.9163 13.4611 20.6836 16.1557 17.7996 19.1844C17.64 19.3525 17.5761 19.5845 17.6868 19.7952C17.8166 20.0379 18.1189 20.1294 18.3615 20.0017C18.4211 19.9676 18.4679 19.9251 18.5147 19.874V19.8719C20.6708 17.6817 22.6949 15.4341 24.4679 13.261L24.4913 13.2355C24.5956 13.1099 24.7276 12.9992 24.8851 12.9162C25.5406 12.5672 26.3537 12.8162 26.7027 13.4718C26.956 13.9272 26.9092 14.4657 26.6346 14.868Z" fill="white"/>
</svg>
