<svg width="132" height="124" viewBox="0 0 132 124" fill="none" xmlns="http://www.w3.org/2000/svg">
<path d="M111.56 18.019C86.085 -6.00633 44.7886 -6.00633 19.3135 18.019C-6.15431 42.0443 -6.15431 81.0086 19.3135 105.034C40.6942 125.21 73.8382 129.812 98.8006 116.124C98.808 116.124 98.808 116.131 98.8153 116.131C107.063 112.047 115.801 112.268 119.734 113.588C120.884 113.975 120.921 113.872 120.577 112.953C119.207 109.283 119.031 100.909 123.455 92.9763C123.455 92.9694 123.448 92.9694 123.441 92.9694C137.878 69.4416 132.904 38.161 111.56 18.019Z" fill="#F36F22"/>
<path fill-rule="evenodd" clip-rule="evenodd" d="M24.8458 82.46C24.8897 82.5429 24.9336 82.612 24.9849 82.7018C24.9849 82.7087 24.9849 82.7156 24.9849 82.7225C36.9095 103.714 64.6333 111.702 87.0101 100.446C94.8328 96.5214 103.879 87.8012 107.812 78.8807C107.812 78.8738 107.812 78.8738 107.812 78.8738C108.339 77.7682 108.339 76.4485 107.688 75.2945C106.574 73.3114 103.967 72.5652 101.864 73.6154C101.418 73.8366 101.044 74.1268 100.715 74.4515H100.722C100.715 74.4515 100.715 74.4584 100.715 74.4584C100.671 74.5068 100.627 74.5483 100.575 74.5966V74.6035C96.393 79.1156 95.0233 80.2903 91.2657 84.2703C89.0903 86.5851 87.5741 88.126 86.512 88.7064C85.0983 89.4803 82.7325 87.8358 83.6114 86.1705C85.3913 82.8193 101.93 66.9821 109.218 57.9993C109.218 57.9924 109.453 57.7229 109.555 57.5847H109.563C110.691 56.03 110.888 53.9502 109.885 52.1813C108.457 49.6454 105.117 48.685 102.421 50.0324C101.777 50.3571 101.242 50.7786 100.81 51.2692L100.715 51.3659C93.4338 59.7821 85.1203 68.4884 76.2648 76.9736V76.9805C76.0744 77.174 75.8766 77.3467 75.6349 77.478C74.6314 77.9755 73.3935 77.6162 72.8588 76.6765C72.4047 75.8611 72.6684 74.9559 73.3203 74.3064C85.1569 62.5736 94.3347 52.1398 101.667 42.8669L102.092 42.3349C103.41 40.7525 103.608 38.6036 102.538 36.7172C101.11 34.1744 97.7553 33.2139 95.0599 34.5683C94.3567 34.9207 93.7707 35.4043 93.302 35.9571C85.2888 45.6239 75.7008 55.9057 65.5415 65.7452C65.2632 66.0009 64.9849 66.2565 64.6772 66.4362C64.6699 66.4362 64.6626 66.45 64.6626 66.45C63.6591 66.9475 62.4212 66.5882 61.8938 65.6554C61.7327 65.3721 61.2932 64.5291 61.8499 63.7621C61.8645 63.7552 61.8719 63.7275 61.8865 63.7275C72.1703 53.4734 77.7297 47.5517 85.633 37.6155L85.8748 37.2907C87.2518 35.5494 87.6986 33.4074 86.5413 31.3621C84.9519 28.5429 80.8134 27.4719 77.8396 28.9782C76.9973 29.3928 75.7448 30.6159 75.7448 30.6159C48.8413 59.4711 47.0688 61.1502 47.0248 61.1986C44.1975 64.1905 35.5178 64.5222 34.6315 58.5314C34.3898 54.0469 35.1882 52.7894 37.3856 45.9556C39.8906 38.1406 26.8527 34.3195 23.0366 45.0504C23.0366 45.0504 19.1032 54.4201 19.323 62.4838C19.4695 67.7559 20.3557 73.0627 22.4872 77.865C22.4945 77.8719 22.4945 77.8926 22.5019 77.9064C22.5165 77.9202 22.5312 77.9479 22.5312 77.9686" fill="white"/>
<path d="M64.6827 66.4501C64.6827 66.4432 64.6901 66.4363 64.6974 66.4363C65.005 66.2567 65.2834 65.9941 65.5617 65.7453C70.5058 60.9569 75.3108 56.0647 79.8668 51.1933L86.7959 35.7983C86.5761 36.3166 86.2758 36.821 85.8949 37.2909L85.6532 37.6156C77.7206 47.5381 72.1905 53.4736 61.9067 63.7277C61.8921 63.7346 61.8847 63.7553 61.8701 63.7622C61.3134 64.5292 61.7529 65.3653 61.914 65.6555C62.4414 66.5883 63.6793 66.9407 64.6827 66.4501Z" fill="#D65922"/>
<path d="M75.6426 77.479C75.8916 77.3477 76.0821 77.1819 76.2725 76.9815V76.9746C83.0112 70.514 89.4349 63.9289 95.3313 57.4406L102.876 40.9954H102.861C102.663 41.4998 102.385 41.9766 102.026 42.405L102.041 42.4119C93.8224 52.8042 84.1612 63.5834 73.3353 74.3074C72.6834 74.957 72.4197 75.8621 72.8739 76.6775C73.4012 77.6172 74.6391 77.9765 75.6426 77.479Z" fill="#D65922"/>
<path d="M109.572 57.5927C109.462 57.7309 109.352 57.8622 109.242 57.9935C109.227 58.0004 109.227 58.0073 109.227 58.0142C101.939 66.9969 85.4002 82.8341 83.6203 86.1854C82.7413 87.8506 85.0999 89.4952 86.5209 88.7213C87.5756 88.1409 89.0991 86.6 91.2746 84.2852C95.0321 80.3052 96.4019 79.1305 100.584 74.6184V74.6115C100.636 74.5631 100.723 74.4664 100.723 74.4664C101.046 74.1416 101.427 73.8514 101.873 73.6303C102.1 73.5198 102.328 73.4299 102.569 73.3539L110.216 56.4111C110.055 56.8188 109.843 57.2196 109.572 57.5927Z" fill="#D65922"/>
<path d="M87.0166 100.449C64.6398 111.705 36.9159 103.711 24.9914 82.7258C24.9914 82.7189 24.9914 82.712 24.9914 82.7051C24.9401 82.6222 24.8962 82.5531 24.8522 82.4632L22.5523 77.9719C22.545 77.9511 22.5377 77.9235 22.523 77.9097C22.5157 77.8959 22.5157 77.882 22.5084 77.8682C20.3842 73.059 19.4906 67.7523 19.3441 62.487C19.183 56.6828 21.1753 50.1945 22.3033 47.0229L5.13428 84.9784C8.3205 92.2751 13.0449 99.1089 19.3221 105.038C37.7949 122.464 65.0353 128.261 88.2032 120.695L107.225 80.1554C103.021 88.6268 94.4658 96.7112 87.0166 100.449Z" fill="#D65922"/>
</svg>
